# xmcd
#
# Track frame offsets:
#	150
#	15840
#	35294
#	40673
#	53647
#	67710
#	91186
#	107452
#	123612
#	175370
#	187331
#	205790
#	241572
#	257475
#	287363
#	296278
#	317388
#
# Disc length: 4392 seconds
#
# Revision: 0
# Processed by: cddbd v1.5.2PL0 Copyright (c) Steve Scherf et al.
# Submitted via: dBpowerAMP V4.0
#
DISCID=ce112611
DTITLE=Glenn Miller - Blandat
DYEAR=2007
DGENRE=Dance
TTITLE0=Pennsylvania 6.5000
TTITLE1=Jag lämna mitt hjärta i Göteborg
TTITLE2=Morsan brände farsans ölschapp
TTITLE3=Etthundra ungar
TTITLE4=Liljor
TTITLE5=Språket
TTITLE6=How Great Thou Are
TTITLE7=In The Mood
TTITLE8=American Patrol
TTITLE9=Swingers Bugle Call Rag
TTITLE10=Biskopen
TTITLE11=Portvakten
TTITLE12=The Elephant Song
TTITLE13=Ridåöverhalningen
TTITLE14=Varm korv blues
TTITLE15=Dardanella
TTITLE16=Det kan aldrig bli vi två
EXTD=Rolands
EXTT0=
EXTT1=
EXTT2=
EXTT3=
EXTT4=
EXTT5=
EXTT6=
EXTT7=
EXTT8=
EXTT9=
EXTT10=
EXTT11=
EXTT12=
EXTT13=
EXTT14=
EXTT15=
EXTT16=
PLAYORDER=
